<svg width="59" height="87" viewBox="0 0 59 87" fill="none" xmlns="http://www.w3.org/2000/svg">
<path fill-rule="evenodd" clip-rule="evenodd" d="M0 26.3053L29.4989 9.07031L59 26.3053V44.5734V60.7752L29.4989 78.0079L0 60.7752V26.3053Z" fill="white"/>
<path fill-rule="evenodd" clip-rule="evenodd" d="M52.6172 53.5543L52.0833 53.0533C52.1409 52.984 52.1963 52.9102 52.2473 52.8297L52.6195 53.1763V53.5543H52.6172ZM45.0802 38.7144C45.2841 38.7479 45.4258 38.9447 45.3926 39.1504C45.3594 39.3584 45.1666 39.5015 44.9606 39.468C44.7568 39.4344 44.6172 39.2376 44.6482 39.0319C44.6815 38.8262 44.8764 38.6831 45.0802 38.7166V38.7144ZM44.7612 40.5682C45.1467 40.6308 45.4103 41.0021 45.3483 41.3889C45.2863 41.7781 44.9207 42.0442 44.5352 41.9816C44.152 41.9189 43.8905 41.5477 43.9504 41.1586C44.0124 40.7717 44.3779 40.5034 44.759 40.566L44.7612 40.5682ZM45.8778 39.6156C46.0838 39.6491 46.2234 39.8437 46.188 40.0517C46.1569 40.2596 45.962 40.4005 45.756 40.367C45.5521 40.3357 45.4126 40.1389 45.4458 39.9309C45.479 39.7229 45.6718 39.5843 45.8756 39.6178L45.8778 39.6156ZM46.8039 40.9462C47.1894 41.011 47.453 41.38 47.391 41.7669C47.3289 42.156 46.9634 42.4221 46.5779 42.3595C46.1946 42.2969 45.931 41.9279 45.9952 41.5365C46.0573 41.1497 46.4206 40.8813 46.8039 40.9462ZM44.0013 42.393C44.2073 42.4266 44.3469 42.6234 44.3137 42.8291C44.2805 43.0371 44.0855 43.178 43.8817 43.1444C43.6778 43.1109 43.5383 42.9163 43.5715 42.7083C43.6047 42.5026 43.7975 42.3617 44.0013 42.393ZM45.6164 42.3841C45.8202 42.4176 45.962 42.6144 45.9288 42.8202C45.8955 43.0259 45.7006 43.169 45.4967 43.1355C45.2929 43.1042 45.1511 42.9074 45.1844 42.6994C45.2176 42.4937 45.4126 42.3528 45.6164 42.3841ZM39.7964 57.839C39.9514 57.8636 40.0556 58.0112 40.0312 58.1632C40.0068 58.3198 39.8628 58.4249 39.7077 58.4003C39.5571 58.3757 39.453 58.2303 39.4773 58.0738C39.5017 57.9217 39.6457 57.8166 39.7964 57.839ZM40.6848 56.8394C40.8974 56.8751 41.0437 57.0764 41.0082 57.2888C40.9728 57.5058 40.7734 57.6511 40.5585 57.6153C40.348 57.5818 40.204 57.3783 40.2395 57.1614C40.2749 56.9512 40.4721 56.8036 40.6825 56.8371L40.6848 56.8394ZM40.7689 57.8703C40.8886 57.8882 40.9683 58 40.9484 58.1207C40.9307 58.2437 40.8199 58.3242 40.698 58.3041C40.5784 58.2862 40.5009 58.1722 40.5186 58.0514C40.5385 57.9329 40.6471 57.8524 40.7667 57.8725L40.7689 57.8703ZM53.7072 49.4507C53.7914 49.4641 53.8468 49.5402 53.8335 49.6229C53.818 49.7079 53.7427 49.7638 53.6585 49.7504C53.5765 49.7369 53.5234 49.6587 53.5367 49.5737C53.5499 49.491 53.6253 49.4351 53.7072 49.4485V49.4507ZM38.5911 58.1565C39.1428 59.5318 40.9528 59.3373 42.0982 59.0018C43.6535 58.5479 44.6039 57.1457 45.7648 56.0813C45.6917 56.5375 45.397 56.9802 46.0107 57.0786C46.8637 57.2173 47.4574 56.6113 48.049 56.1797L50.9091 53.4984C51.1196 53.5341 51.299 53.5274 51.4608 53.4827L51.5649 53.5811V54.7015L51.6424 53.5453L51.5494 53.4559C51.607 53.4335 51.6646 53.4067 51.72 53.3754L52.0479 53.6817V55.5378L52.1764 53.6214L51.833 53.2971C51.8861 53.2591 51.9371 53.2144 51.9836 53.1674L52.6195 53.7578V54.3235L52.6549 53.7913L53.1202 54.2252L53.1157 56.1618L53.2664 54.1625L52.6682 53.6035L52.7014 53.1428L52.296 52.7626C52.7524 52.0247 52.9983 51.0094 53.6762 50.8998L53.3107 50.3385C53.4303 50.3475 53.7493 50.6203 53.8668 50.6292C54.1836 50.0903 54.27 48.7642 53.2597 48.961C53.6873 48.147 53.5544 47.2771 53.1844 46.8969C53.4768 48.2386 53.242 48.223 53.129 48.9408C52.9717 49.0728 52.7524 49.1891 52.6062 49.6743C52.5508 50.0299 52.4932 50.3855 52.4356 50.741C52.1609 50.6941 51.175 46.0806 50.0783 42.9208C49.6707 41.749 48.9817 40.5973 48.2927 39.6312C43.8728 33.4345 43.9105 38.5779 42.7385 42.2074C41.8434 44.9759 41.777 46.6956 42.5834 48.5137L41.1478 49.4462C41.1079 49.9829 41.2298 49.7884 41.1744 50.135C41.1234 50.4503 40.8199 50.6874 40.6493 50.8707C40.7113 51.0742 40.7446 51.1145 40.6936 51.4253L40.6515 51.6937C40.6139 51.9307 40.1353 52.369 39.978 52.539C40.0401 52.7425 40.0733 52.7828 40.0223 53.0936L40.0002 53.2278C39.6789 55.2337 37.6163 56.7432 33.9741 59.6325C35.6113 58.6396 37.171 57.7383 37.8379 57.839C36.4355 58.4897 35.4541 59.4267 34.528 60.4062C35.9503 59.3462 37.3926 58.2236 38.5934 58.161L38.5911 58.1565Z" fill="#09529B"/>
<path fill-rule="evenodd" clip-rule="evenodd" d="M29.4989 9.07031L44.2472 17.6889L58.9978 26.3053V44.5734L54.0728 47.8339V29.1834L41.7859 22.0072L29.4989 14.8265L17.2141 22.0072L4.92497 29.1834V43.5402V57.8971L17.2141 65.0733L29.4989 72.254L41.7859 65.0733L54.0728 57.8971V51.5349H58.9978V60.7752L44.2472 69.3916L29.4989 78.0079L14.7483 69.3916L0 60.7752V43.5402V26.3053L14.7483 17.6889L29.4989 9.07031Z" fill="#F48120"/>
<path d="M21.5054 82.268H22.0637V82.9165H23.136V83.167H22.0637V85.7901C22.0637 86.1189 22.1036 86.338 22.1789 86.4498C22.2565 86.5617 22.3872 86.6198 22.5711 86.6198C22.755 86.6198 22.8901 86.5617 22.9876 86.4454C23.0873 86.3313 23.1382 86.1636 23.1427 85.9445L23.3288 85.94V86.0138C23.3288 86.338 23.249 86.584 23.0917 86.7495C22.9344 86.9172 22.6974 87 22.3872 87C22.077 87 21.851 86.9038 21.7115 86.7115C21.5719 86.5192 21.5032 86.2039 21.5032 85.7655V83.167H21.0668V82.9165H21.5032V82.268H21.5054ZM20.1053 84.464V86.6198H20.7921V86.8747H18.8712V86.6198H19.5536V84.5289C19.5536 84.0034 19.4805 83.6411 19.3343 83.4421C19.1881 83.243 18.9399 83.1446 18.5899 83.1446C18.2398 83.1446 17.9452 83.2564 17.7214 83.4823C17.4977 83.7059 17.3869 84.0034 17.3869 84.3701V86.6176H18.0693V86.8725H16.1484V86.6176H16.8219V83.1782H16.1484V82.9232H17.3847V83.5382C17.5176 83.29 17.6926 83.1021 17.9142 82.9814C18.1357 82.8562 18.4038 82.7958 18.7206 82.7958C19.2036 82.7958 19.5536 82.9277 19.7729 83.1894C19.9901 83.451 20.1008 83.8759 20.1008 84.4618L20.1053 84.464ZM12.8186 84.6161C12.8164 84.6496 12.8142 84.6877 12.812 84.7302C12.812 84.7726 12.812 84.8353 12.812 84.9135C12.812 85.5442 12.9117 86.0048 13.111 86.3023C13.3104 86.5974 13.625 86.745 14.0526 86.745C14.4071 86.745 14.7017 86.6466 14.9255 86.4543C15.1515 86.2598 15.28 85.9959 15.311 85.6649H15.6655C15.6189 86.0943 15.4528 86.4252 15.1648 86.6556C14.8768 86.8882 14.4846 87 13.9884 87C13.3902 87 12.9471 86.8278 12.6502 86.4789C12.3556 86.1301 12.2094 85.6045 12.2094 84.9001C12.2094 84.1957 12.3511 83.65 12.6347 83.3079C12.9161 82.968 13.357 82.7958 13.9596 82.7958C14.509 82.7958 14.9277 82.9478 15.2113 83.252C15.4949 83.5539 15.6433 84.0101 15.6588 84.6139H12.8186V84.6161ZM12.8252 84.3545H15.0318C15.0318 83.9363 14.9388 83.6165 14.7505 83.3884C14.56 83.1625 14.2985 83.0485 13.9596 83.0485C13.6206 83.0485 13.3459 83.1558 13.1598 83.3683C12.9737 83.5829 12.8629 83.9117 12.8252 84.3522V84.3545ZM7.51035 82.9255H9.41565V83.1804H8.73329L9.90527 86.2799L11.0241 83.1804H10.3262V82.9255H11.9944V83.1804H11.3852L9.95622 86.9709H9.59289L8.15284 83.1804H7.50814V82.9255H7.51035ZM6.8723 84.464V86.6198H7.55909V86.8747H5.63829V86.6198H6.32065V84.5289C6.32065 84.0034 6.24754 83.6411 6.0991 83.4421C5.95288 83.243 5.70697 83.1446 5.35692 83.1446C5.00688 83.1446 4.71222 83.2564 4.49068 83.4823C4.26691 83.7059 4.15614 84.0034 4.15614 84.3701V86.6176H4.8385V86.8725H2.9177V86.6176H3.59341V83.1782H2.9177V82.9232H4.15614V83.5382C4.28907 83.29 4.46409 83.1021 4.68564 82.9814C4.90497 82.8562 5.17525 82.7958 5.49207 82.7958C5.97504 82.7958 6.32508 82.9277 6.54441 83.1894C6.76374 83.451 6.8723 83.8759 6.8723 84.4618V84.464ZM0.24585 81.2281H2.53221V81.5166H1.68369V86.5796H2.53221V86.8725H0.24585V86.5796H1.09659V81.5166H0.24585V81.2281Z" fill="#F48120"/>
<path d="M58.2267 83.3102V82.8853H58.5812V84.312H58.2267V84.2807C58.2267 83.8715 58.1514 83.5673 58.0008 83.3661C57.8501 83.1648 57.6219 83.0664 57.3162 83.0664C57.0769 83.0664 56.8842 83.1357 56.7402 83.2699C56.5939 83.4063 56.5208 83.5875 56.5208 83.8133C56.5208 84.1778 56.862 84.4328 57.5422 84.5759C57.7017 84.6094 57.8257 84.6385 57.9144 84.6609C58.2954 84.7526 58.5701 84.8845 58.7407 85.0634C58.9113 85.2401 58.9955 85.4816 58.9955 85.788C58.9955 86.1569 58.8692 86.4521 58.6167 86.6713C58.3641 86.8904 58.0229 86.9978 57.5976 86.9978C57.3095 86.9978 57.0614 86.9374 56.8509 86.8166C56.6405 86.6959 56.4898 86.5304 56.4012 86.3202V86.8725H56.0467V85.2669H56.4012V85.448C56.4012 85.8528 56.5031 86.1704 56.7047 86.4007C56.9085 86.631 57.1855 86.7451 57.5355 86.7451C57.8036 86.7451 58.0207 86.6713 58.1847 86.5214C58.3486 86.3716 58.4284 86.1726 58.4284 85.9221C58.4284 85.5241 58.0429 85.2401 57.2741 85.0679C57.1966 85.0522 57.1412 85.0388 57.1035 85.0299C56.7224 84.9494 56.4455 84.8196 56.2749 84.6519C56.1043 84.4797 56.0179 84.2472 56.0179 83.9475C56.0179 83.6054 56.1287 83.3281 56.3458 83.1134C56.5651 82.9009 56.8487 82.7936 57.2032 82.7936C57.427 82.7936 57.6264 82.8383 57.8014 82.9255C57.9742 83.0127 58.1182 83.1402 58.229 83.3057M54.7197 84.4641V86.6198H55.4065V86.8748H53.4879V86.6198H54.1702V84.5289C54.1702 84.0034 54.0971 83.6411 53.9487 83.4421C53.8025 83.2431 53.5565 83.1424 53.2065 83.1424C52.8565 83.1424 52.5618 83.2543 52.3403 83.4801C52.1165 83.7037 52.0057 84.0012 52.0057 84.3679V86.6176H52.6881V86.8725H50.7673V86.6176H51.443V83.1782H50.7673V82.9233H52.0035V83.5383C52.1364 83.29 52.3115 83.1022 52.533 82.9814C52.7523 82.8562 53.0226 82.7958 53.3394 82.7958C53.8224 82.7958 54.1724 82.9278 54.3918 83.1894C54.6111 83.451 54.7197 83.8759 54.7197 84.4641ZM48.3812 82.7958C49.0237 82.7958 49.5 82.968 49.8102 83.3124C50.1226 83.6568 50.2754 84.1845 50.2754 84.8979C50.2754 85.6113 50.1226 86.1435 49.8124 86.4857C49.5045 86.8301 49.0259 87 48.379 87C47.7321 87 47.2491 86.8301 46.9434 86.4879C46.6377 86.1458 46.4826 85.618 46.4826 84.8979C46.4826 84.1778 46.6354 83.6501 46.9456 83.3079C47.2536 82.9658 47.7321 82.7936 48.3812 82.7936V82.7958ZM48.3812 83.0508C47.9182 83.0508 47.5814 83.2006 47.3688 83.4958C47.1583 83.7932 47.0497 84.2673 47.0497 84.9203C47.0497 85.5733 47.1583 86.0049 47.371 86.3001C47.5859 86.5975 47.9226 86.7428 48.379 86.7428C48.8354 86.7428 49.1766 86.5952 49.3893 86.3001C49.5997 86.0071 49.7083 85.5397 49.7083 84.8957C49.7083 84.2516 49.5997 83.7887 49.387 83.4935C49.1721 83.1961 48.8398 83.0485 48.3812 83.0485V83.0508ZM45.1334 81.2282C45.2375 81.2282 45.3239 81.264 45.397 81.3378C45.4679 81.4116 45.5033 81.501 45.5033 81.6061C45.5033 81.7112 45.4679 81.8007 45.397 81.8745C45.3239 81.9483 45.2375 81.984 45.1334 81.984C45.0292 81.984 44.9384 81.9483 44.8653 81.8745C44.7922 81.8007 44.7545 81.7112 44.7545 81.6061C44.7545 81.501 44.79 81.4116 44.8631 81.3378C44.9384 81.264 45.027 81.2282 45.1334 81.2282ZM44.1563 82.9255H45.3926V86.6198H46.0904V86.8748H44.1563V86.6198H44.8298V83.1805H44.1563V82.9255ZM42.1735 82.2681H42.7318V82.9166H43.8063V83.167H42.7318V85.7902C42.7318 86.1189 42.7717 86.3381 42.847 86.4499C42.9245 86.5617 43.0553 86.6198 43.2391 86.6198C43.423 86.6198 43.5582 86.5617 43.6556 86.4454C43.7553 86.3314 43.8063 86.1636 43.8107 85.9445L43.9968 85.94V86.0138C43.9968 86.3381 43.9171 86.5841 43.7598 86.7518C43.6025 86.9195 43.3654 87.0022 43.0553 87.0022C42.7451 87.0022 42.5191 86.9061 42.3795 86.7138C42.24 86.5215 42.1713 86.2061 42.1713 85.7678V83.1693H41.7348V82.9188H42.1713V82.2703L42.1735 82.2681ZM36.7412 82.9255H37.9796V85.2691C37.9796 85.7879 38.0505 86.1458 38.1967 86.3515C38.343 86.5528 38.5867 86.6534 38.9278 86.6534C39.2934 86.6534 39.5903 86.5416 39.8118 86.3202C40.0356 86.0966 40.1463 85.8014 40.1463 85.4257V83.1782H39.464V82.9233H40.7091V86.6176H41.3826V86.8725H40.1463V86.2553C40.0134 86.5036 39.8384 86.6914 39.6169 86.8144C39.3975 86.9374 39.1294 87 38.8126 87C38.3275 87 37.9752 86.8703 37.7581 86.6087C37.541 86.347 37.4324 85.9221 37.4324 85.334V83.1782H36.7456V82.9233L36.7412 82.9255ZM34.6852 81.2282H35.9237V86.6198H36.6215V86.8748H34.6874V86.6198H35.3632V81.4787H34.6874V81.2282H34.6852ZM32.2992 82.7958C32.9417 82.7958 33.418 82.968 33.7304 83.3124C34.0427 83.6568 34.1956 84.1845 34.1956 84.8979C34.1956 85.6113 34.0427 86.1435 33.7326 86.4857C33.4246 86.8301 32.9461 87 32.297 87C31.6478 87 31.1671 86.8301 30.8613 86.4879C30.5534 86.148 30.4005 85.618 30.4005 84.8979C30.4005 84.1778 30.5534 83.6501 30.8636 83.3079C31.1715 82.9658 31.65 82.7936 32.297 82.7936L32.2992 82.7958ZM32.2992 83.0508C31.8361 83.0508 31.4994 83.2006 31.2889 83.4958C31.0785 83.7932 30.9699 84.2673 30.9699 84.9203C30.9699 85.5733 31.0762 86.0049 31.2934 86.3001C31.5083 86.5975 31.8428 86.7428 32.2992 86.7428C32.7556 86.7428 33.0967 86.5952 33.3094 86.3001C33.5221 86.0071 33.6262 85.5397 33.6262 84.8957C33.6262 84.2516 33.5199 83.7887 33.305 83.4935C33.0901 83.1961 32.7556 83.0485 32.297 83.0485L32.2992 83.0508ZM28.7544 81.8342V81.2282H29.1842V83.1693H28.7544V82.9032C28.7544 82.4067 28.6614 82.0288 28.4753 81.7694C28.2892 81.51 28.0189 81.3803 27.6644 81.3803C27.3742 81.3803 27.1371 81.4764 26.9577 81.6687C26.776 81.8611 26.6852 82.116 26.6852 82.4291C26.6852 82.7153 26.7539 82.9412 26.8957 83.1089C27.0352 83.2766 27.3565 83.4667 27.855 83.6791L27.8993 83.6993C28.9959 84.1667 29.5454 84.7481 29.5454 85.4458C29.5454 85.8953 29.3947 86.2687 29.0956 86.5617C28.7943 86.8547 28.4199 87.0022 27.9657 87.0022C27.6268 87.0022 27.3277 86.915 27.0685 86.7361C26.8093 86.5617 26.6121 86.3112 26.4747 85.9847V86.8748H26.0449V84.7503H26.4747V84.9985C26.4747 85.4928 26.6099 85.8975 26.8824 86.2173C27.1549 86.5349 27.4894 86.6936 27.8904 86.6936C28.2028 86.6936 28.4598 86.5908 28.6592 86.3828C28.8586 86.1726 28.9583 85.902 28.9583 85.571C28.9583 85.0768 28.5196 84.643 27.6401 84.2695C27.4805 84.2024 27.3587 84.1488 27.2723 84.1107C26.8491 83.9274 26.55 83.7194 26.3706 83.4868C26.1889 83.252 26.1003 82.9546 26.1003 82.5968C26.1003 82.163 26.2355 81.8074 26.5057 81.5211C26.776 81.2371 27.1261 81.0963 27.5514 81.0963C27.8284 81.0963 28.0676 81.1589 28.2692 81.2863C28.4731 81.4093 28.6326 81.5949 28.7456 81.8387L28.7544 81.8342Z" fill="#231F20"/>
<path d="M38.0706 0.375694V3.10842H39.5749C39.9648 3.10842 40.224 3.05028 40.3547 2.93176C40.5297 2.77522 40.625 2.50015 40.6471 2.10881H40.8332V4.51727H40.6471C40.6006 4.1796 40.5519 3.96268 40.5054 3.86652C40.4455 3.748 40.3458 3.65407 40.2085 3.58698C40.0711 3.5199 39.8584 3.48411 39.5749 3.48411H38.0706V5.76511C38.0706 6.07148 38.0839 6.25709 38.1104 6.32195C38.1392 6.38904 38.1836 6.44271 38.2522 6.48072C38.3187 6.52098 38.4472 6.53887 38.6355 6.53887H39.792C40.1775 6.53887 40.4566 6.50979 40.6316 6.45612C40.8044 6.40245 40.9728 6.29511 41.1323 6.1341C41.3406 5.92389 41.5533 5.60634 41.7704 5.18145H41.9764L41.3871 6.91232H36.121V6.72448H36.3624C36.5242 6.72448 36.677 6.68422 36.821 6.60595C36.9296 6.55228 37.0027 6.46954 37.0404 6.35996C37.0803 6.25039 37.098 6.02676 37.098 5.69132V1.19864C37.098 0.760333 37.0559 0.49198 36.9673 0.391348C36.8454 0.254935 36.6438 0.187847 36.3602 0.187847H36.1187V0H41.3849L41.458 1.5229H41.263C41.1922 1.15615 41.1146 0.903455 41.0304 0.767042C40.944 0.628393 40.8177 0.525524 40.6516 0.451727C40.5187 0.400293 40.2794 0.375694 39.9426 0.375694H38.0706ZM35.587 0L35.6601 1.62577H35.4696C35.4319 1.33953 35.381 1.13603 35.319 1.01303C35.2148 0.81624 35.0775 0.670882 34.9025 0.579195C34.7296 0.485271 34.5015 0.43831 34.2201 0.43831H33.2586V5.71592C33.2586 6.14081 33.3029 6.40692 33.3937 6.51427C33.5222 6.65739 33.7172 6.72895 33.9808 6.72895H34.2157V6.9168H31.309V6.72895H31.5549C31.8473 6.72895 32.0534 6.6395 32.1774 6.46283C32.2505 6.35325 32.2882 6.10503 32.2882 5.71815V0.43831H31.4685C31.1495 0.43831 30.9235 0.462909 30.7883 0.50987C30.6133 0.574722 30.4649 0.697717 30.3408 0.881092C30.2167 1.06223 30.1436 1.31269 30.1193 1.62577H29.9287L30.0018 0H35.5892H35.587ZM29.3727 6.72671V6.91456H26.446V6.72671H26.6875C26.9711 6.72671 27.1749 6.64397 27.3034 6.47849C27.3832 6.36891 27.423 6.1095 27.423 5.69579V1.22101C27.423 0.872147 27.4009 0.639574 27.3566 0.529997C27.3234 0.445019 27.2525 0.371221 27.1483 0.310842C26.9999 0.2281 26.847 0.190083 26.6853 0.190083H26.4438V0.00223627H29.3704V0.190083H29.1245C28.8454 0.190083 28.6438 0.272825 28.5153 0.43831C28.4311 0.547887 28.389 0.809531 28.389 1.22324V5.69803C28.389 6.04689 28.4111 6.27946 28.4555 6.38903C28.4887 6.47401 28.5574 6.54781 28.6659 6.60819C28.8099 6.69093 28.9606 6.72895 29.1223 6.72895H29.3682L29.3727 6.72671ZM21.2375 6.91456L18.5989 1.09577V5.71368C18.5989 6.13857 18.6454 6.40469 18.7362 6.51203C18.8625 6.65515 19.0597 6.72671 19.3344 6.72671H19.5781V6.91456H17.1765V6.72671H17.4224C17.7149 6.72671 17.9209 6.63726 18.045 6.4606C18.1181 6.35102 18.1558 6.10279 18.1558 5.71592V1.19864C18.1558 0.892273 18.1225 0.670882 18.0539 0.53447C18.0051 0.436073 17.9187 0.353331 17.7902 0.286243C17.6617 0.221391 17.4579 0.187847 17.1743 0.187847V0H19.1328L21.5964 5.40731L24.04 0H25.9786V0.187847H25.7393C25.4424 0.187847 25.2342 0.277298 25.1101 0.453964C25.037 0.563541 24.9993 0.811767 24.9993 1.20088V5.71815C24.9993 6.14304 25.0481 6.40916 25.1411 6.5165C25.2674 6.65962 25.4668 6.73118 25.7393 6.73118H25.9786V6.91903H23.0519V6.73118H23.2979C23.5925 6.73118 23.7986 6.64173 23.9204 6.46507C23.9935 6.35549 24.0312 6.10726 24.0312 5.72039V1.09577L21.4036 6.91456H21.2397H21.2375Z" fill="#231F20"/>
</svg>
